<?xml version="1.0" encoding="iso-8859-1"?>
<!-- Generator: Adobe Illustrator 17.1.0, SVG Export Plug-In . SVG Version: 6.00 Build 0)  -->
<!DOCTYPE svg PUBLIC "-//W3C//DTD SVG 1.1//EN" "http://www.w3.org/Graphics/SVG/1.1/DTD/svg11.dtd">
<svg version="1.1" id="Capa_1" xmlns="http://www.w3.org/2000/svg" xmlns:xlink="http://www.w3.org/1999/xlink" x="0px" y="0px"
	 viewBox="0 0 470 470" style="enable-background:new 0 0 470 470;" xml:space="preserve">
<g>
	<path d="M355.772,369.824c-5.092,0-10.173,0.417-15.181,1.244c-14.763-45.447-57.205-76.606-105.592-76.606
		s-90.829,31.159-105.592,76.606c-5.008-0.827-10.089-1.244-15.181-1.244c-51.102,0-92.676,41.574-92.676,92.676
		c0,4.142,3.357,7.5,7.5,7.5s7.5-3.358,7.5-7.5c0-42.831,34.846-77.676,77.676-77.676c6.298,0,12.576,0.761,18.66,2.261
		c3.994,0.982,8.043-1.436,9.062-5.427c10.854-42.508,49.118-72.196,93.051-72.196s82.196,29.688,93.051,72.196
		c1.019,3.991,5.066,6.41,9.062,5.427c6.084-1.5,12.362-2.261,18.66-2.261c42.83,0,77.676,34.845,77.676,77.676
		c0,4.142,3.357,7.5,7.5,7.5s7.5-3.358,7.5-7.5C448.448,411.398,406.874,369.824,355.772,369.824z"/>
	<path d="M357.086,422.154c-4.411,0-8,3.589-8,8s3.589,8,8,8s8-3.589,8-8S361.497,422.154,357.086,422.154z"/>
	<path d="M195.49,361.202c0-4.411-3.589-8-8-8s-8,3.589-8,8s3.589,8,8,8S195.49,365.613,195.49,361.202z"/>
	<path d="M216.065,339.113c0-4.411-3.589-8-8-8s-8,3.589-8,8s3.589,8,8,8S216.065,343.524,216.065,339.113z"/>
	<path d="M108.307,353.792c3.309-2.493,3.969-7.196,1.476-10.503c-20.608-27.346-31.501-59.947-31.501-94.22
		c0.557-71.823,44.637-140.201,60.782-162.856c6.532,9.136,17.612,25.688,28.468,46.791c1.423,2.767,4.415,4.365,7.499,4.023
		c3.093-0.345,5.651-2.563,6.431-5.575c13.194-50.993,41.408-94.255,53.634-111.388c12.227,17.134,40.439,60.395,53.634,111.388
		c0.779,3.012,3.338,5.23,6.431,5.575c3.09,0.34,6.075-1.257,7.499-4.023c10.855-21.102,21.937-37.655,28.469-46.791
		c16.149,22.659,60.226,91.028,60.782,162.798c0,34.338-10.896,66.944-31.513,94.293c-2.493,3.308-1.833,8.01,1.475,10.504
		c1.353,1.019,2.937,1.511,4.509,1.511c2.274,0,4.521-1.03,5.995-2.986c22.593-29.972,34.534-65.701,34.534-103.381
		c-0.378-48.641-19.382-94.998-35.257-125.321c-17.123-32.704-33.961-53.793-34.669-54.675c-1.424-1.772-3.574-2.803-5.847-2.803
		c-2.273,0-4.424,1.031-5.848,2.803c-0.619,0.771-12.977,16.253-27.221,41.094C278.279,49.735,242.591,4.856,240.941,2.803
		C239.519,1.031,237.368,0,235.095,0s-4.424,1.031-5.847,2.803c-1.649,2.053-37.338,46.931-57.127,107.247
		c-14.244-24.841-26.601-40.323-27.22-41.094c-1.424-1.772-3.574-2.803-5.848-2.803c-2.272,0-4.423,1.031-5.847,2.803
		c-0.709,0.882-17.547,21.971-34.669,54.675c-15.876,30.324-34.88,76.681-35.257,125.379c0,37.615,11.938,73.338,34.522,103.306
		C100.296,355.624,104.999,356.284,108.307,353.792z"/>
	<path d="M305.146,389.335c-21.872,10.941-45.441,16.489-70.052,16.489c-24.673,0-48.296-5.575-70.212-16.569
		c-3.7-1.856-8.209-0.363-10.067,3.341c-1.857,3.702-0.361,8.209,3.341,10.066c24.023,12.051,49.909,18.162,76.938,18.162
		c26.961,0,52.787-6.081,76.763-18.074c3.704-1.853,5.205-6.358,3.353-10.063C313.357,388.984,308.854,387.484,305.146,389.335z"/>
	<path d="M330.262,321.573c0.834,0.298,1.686,0.439,2.523,0.439c3.08,0,5.968-1.912,7.063-4.979
		c4.288-12.003,6.463-24.595,6.463-37.483c-0.461-59.513-42.663-113.056-44.46-115.307c-1.411-1.768-3.544-2.804-5.806-2.821
		c-2.25,0.009-4.41,0.988-5.848,2.735c-0.361,0.439-6.808,8.326-14.678,21.22c-12.912-35.678-33.575-61.66-34.578-62.908
		c-1.423-1.772-3.573-2.803-5.847-2.803s-4.424,1.031-5.847,2.803c-1.003,1.248-21.665,27.23-34.577,62.908
		c-7.87-12.894-14.317-20.781-14.679-21.22c-1.441-1.752-3.559-2.778-5.868-2.734c-2.27,0.023-4.406,1.072-5.812,2.854
		c-0.65,0.824-16.076,20.517-28.747,49.172c-1.675,3.789,0.038,8.217,3.826,9.893c3.786,1.674,8.217-0.038,9.893-3.826
		c7.252-16.401,15.6-29.851,21.026-37.871c4.174,5.971,10.013,14.992,15.679,26.005c1.423,2.768,4.416,4.363,7.499,4.023
		c3.093-0.345,5.651-2.563,6.431-5.575c7.491-28.948,22.783-53.93,31.181-66.183c8.395,12.232,23.663,37.163,31.172,66.183
		c0.779,3.012,3.338,5.23,6.431,5.575c3.077,0.341,6.076-1.257,7.499-4.023c5.675-11.031,11.524-20.065,15.698-26.035
		c11.263,16.548,35.089,56.424,35.411,97.994c0,11.105-1.88,21.999-5.588,32.379C324.329,315.888,326.361,320.18,330.262,321.573z"
		/>
	<path d="M138.296,237.498c-4.005-1.072-8.113,1.309-9.181,5.312c-3.383,12.673-5.145,25.034-5.236,36.798
		c0,12.772,2.156,25.31,6.408,37.267c1.093,3.072,3.982,4.989,7.066,4.989c0.834,0,1.683-0.14,2.513-0.436
		c3.903-1.388,5.941-5.677,4.554-9.58c-3.677-10.338-5.541-21.186-5.541-32.182c0.082-10.44,1.673-21.539,4.729-32.989
		C144.676,242.676,142.298,238.566,138.296,237.498z"/>
</g>
<g>
</g>
<g>
</g>
<g>
</g>
<g>
</g>
<g>
</g>
<g>
</g>
<g>
</g>
<g>
</g>
<g>
</g>
<g>
</g>
<g>
</g>
<g>
</g>
<g>
</g>
<g>
</g>
<g>
</g>
</svg>
