
<svg width="286px" height="286px" viewBox="682 536 286 286" version="1.1" xmlns="http://www.w3.org/2000/svg" xmlns:xlink="http://www.w3.org/1999/xlink">
    <!-- Generator: Sketch 42 (36781) - http://www.bohemiancoding.com/sketch -->
    <desc>Created with Sketch.</desc>
    <defs></defs>
    <g id="pie-chart" stroke="none" stroke-width="1" fill="none" fill-rule="evenodd" transform="translate(682.000000, 536.000000)">
        <path d="M143,0.778 C221.547,0.778 285.222,64.453 285.222,143 C285.222,221.547 221.547,285.222 143,285.222 C64.453,285.222 0.778,221.547 0.778,143 C0.778,64.453 64.453,0.778 143,0.778" id="Fill-5" fill="#2F424F"></path>
        <path d="M143,0.778 C142.807,0.778 142.619,0.792 142.426,0.792 L142.426,285.207 C142.619,285.207 142.807,285.22 143,285.22 C221.546,285.22 285.222,221.545 285.222,142.998 C285.222,64.452 221.546,0.778 143,0.778" id="Fill-6" fill="#27333F"></path>
        <path d="M143.288,0.785 C143.191,0.785 143.097,0.778 143,0.778 C91.555,0.778 46.496,28.095 21.522,69.012 L143.288,142.964 L143.288,0.785" id="Fill-7" fill="#FACD60"></path>
        <path d="M21.522,69.012 C8.365,90.569 0.778,115.897 0.778,143 C0.778,195.381 29.115,241.116 71.277,265.796 L143.288,142.964 L21.522,69.012" id="Fill-8" fill="#65BEAC"></path>
        <path d="M143.288,142.964 L21.522,69.012 C8.365,90.569 0.778,115.897 0.778,143 L143.288,142.964" id="Fill-9" fill="#E77D66"></path>
    </g>
</svg>