<?xml version="1.0" encoding="iso-8859-1"?>
<!-- Generator: Adobe Illustrator 17.1.0, SVG Export Plug-In . SVG Version: 6.00 Build 0)  -->
<!DOCTYPE svg PUBLIC "-//W3C//DTD SVG 1.1//EN" "http://www.w3.org/Graphics/SVG/1.1/DTD/svg11.dtd">
<svg version="1.1" id="Capa_1" xmlns="http://www.w3.org/2000/svg" xmlns:xlink="http://www.w3.org/1999/xlink" x="0px" y="0px"
	 viewBox="0 0 389.292 389.292" style="enable-background:new 0 0 389.292 389.292;" xml:space="preserve">
<path id="XMLID_787_" d="M287.967,64.952c-3.516-3.514-3.516-9.213-0.001-12.728l6.015-6.016c3.514-3.515,9.214-3.516,12.728-0.001
	c3.516,3.514,3.516,9.213,0.001,12.728l-6.015,6.016c-1.757,1.757-4.061,2.636-6.364,2.636S289.724,66.709,287.967,64.952z
	 M195.155,26.508c4.971,0,9-4.029,9-9V9c0-4.97-4.029-9-9-9s-9,4.03-9,9v8.508C186.155,22.479,190.184,26.508,195.155,26.508z
	 M335.408,166.763h8.507c4.971,0,9-4.03,9-9s-4.029-9-9-9h-8.507c-4.971,0-9,4.03-9,9S330.438,166.763,335.408,166.763z
	 M89.614,64.951c1.757,1.758,4.061,2.636,6.364,2.636c2.303,0,4.606-0.878,6.363-2.635c3.516-3.514,3.516-9.213,0.001-12.728
	l-6.015-6.016c-3.514-3.514-9.214-3.516-12.728-0.001c-3.516,3.514-3.516,9.213-0.001,12.728L89.614,64.951z M309.803,250.114
	c-30.889-20.51-71.786-31.805-115.158-31.805c-43.371,0-84.269,11.295-115.157,31.805c-32.023,21.263-49.659,49.906-49.659,80.654
	c0,4.97,4.029,9,9,9h65.164c2.99,0,5.785-1.485,7.458-3.963c1.674-2.478,2.008-5.625,0.891-8.398l-10.447-25.951
	c-1.855-4.611-7.1-6.843-11.71-4.988c-4.61,1.856-6.844,7.099-4.987,11.71l5.471,13.59H48.496
	c3.156-21.184,17.417-41.034,40.948-56.658c27.971-18.572,65.332-28.8,105.2-28.8c39.869,0,77.23,10.228,105.202,28.8
	c23.531,15.624,37.792,35.474,40.948,56.658h-42.171l5.473-13.589c1.856-4.611-0.376-9.854-4.986-11.71
	c-4.614-1.858-9.854,0.376-11.711,4.986l-10.451,25.951c-1.117,2.774-0.783,5.921,0.891,8.399c1.673,2.478,4.468,3.963,7.458,3.963
	h65.166c4.971,0,9-4.03,9-9C359.463,300.02,341.827,271.376,309.803,250.114z M152.687,135.402
	c0-24.956,15.968-46.813,39.734-54.387c1.779-0.567,3.688-0.567,5.466,0c23.766,7.574,39.732,29.43,39.732,54.387
	c0,24.959-15.968,46.815-39.733,54.386c-0.889,0.283-1.81,0.425-2.731,0.425s-1.843-0.142-2.731-0.425
	C168.656,182.216,152.687,160.36,152.687,135.402z M170.687,135.402c0,16.114,9.719,30.338,24.468,36.254
	c14.747-5.915,24.465-20.139,24.465-36.254c0-16.113-9.717-30.337-24.465-36.255C180.406,105.065,170.687,119.289,170.687,135.402z
	 M46.39,166.763h8.512c4.971,0,9-4.03,9-9s-4.029-9-9-9H46.39c-4.971,0-9,4.03-9,9S41.419,166.763,46.39,166.763z M261.862,303.519
	c0.167,1.412,0.266,2.842,0.292,4.25c0.47,26.553-30.05,54.543-59.966,78.423l-1.412,1.128c-1.644,1.314-3.633,1.971-5.621,1.971
	s-3.977-0.657-5.62-1.97l-1.396-1.114c-29.926-23.882-60.454-51.876-59.983-78.427c0.029-1.695,0.163-3.406,0.396-5.082
	c2.806-20.261,20.17-35.546,40.391-35.546c9.701,0,18.951,3.45,26.212,9.54c7.262-6.09,16.51-9.54,26.209-9.54
	C241.989,267.152,259.399,282.786,261.862,303.519z M244.156,308.099c-0.015-0.805-0.072-1.636-0.17-2.458
	c-1.387-11.68-11.113-20.489-22.623-20.489c-7.505,0-14.53,3.701-18.792,9.901c-1.68,2.442-4.453,3.901-7.417,3.901
	c-2.964,0-5.738-1.459-7.417-3.902c-4.261-6.199-11.287-9.901-18.795-9.901c-11.467,0-20.955,8.421-22.562,20.023
	c-0.135,0.966-0.211,1.946-0.228,2.92c-0.344,19.349,32.993,47.729,49,60.664C211.152,355.831,244.499,327.443,244.156,308.099z"/>
<g>
</g>
<g>
</g>
<g>
</g>
<g>
</g>
<g>
</g>
<g>
</g>
<g>
</g>
<g>
</g>
<g>
</g>
<g>
</g>
<g>
</g>
<g>
</g>
<g>
</g>
<g>
</g>
<g>
</g>
</svg>
