<?xml version="1.0" encoding="iso-8859-1"?>
<!-- Generator: Adobe Illustrator 17.1.0, SVG Export Plug-In . SVG Version: 6.00 Build 0)  -->
<!DOCTYPE svg PUBLIC "-//W3C//DTD SVG 1.1//EN" "http://www.w3.org/Graphics/SVG/1.1/DTD/svg11.dtd">
<svg version="1.1" id="Capa_1" xmlns="http://www.w3.org/2000/svg" xmlns:xlink="http://www.w3.org/1999/xlink" x="0px" y="0px"
	 viewBox="0 0 470 470" style="enable-background:new 0 0 470 470;" xml:space="preserve">
<g>
	<path d="M332,247.146c-4.143,0-7.5,3.358-7.5,7.5V455h-179V254.646c0-4.142-3.358-7.5-7.5-7.5s-7.5,3.358-7.5,7.5V462.5
		c0,4.142,3.358,7.5,7.5,7.5h194c4.143,0,7.5-3.358,7.5-7.5V254.646C339.5,250.504,336.143,247.146,332,247.146z"/>
	<path d="M138,172.146c4.142,0,7.5-3.358,7.5-7.5c0-28.27,15.036-54.397,39.37-68.646h100.26
		c24.334,14.249,39.37,40.376,39.37,68.646c0,4.142,3.357,7.5,7.5,7.5s7.5-3.358,7.5-7.5c0-34.354-18.68-66.045-48.75-82.706
		c-1.112-0.617-2.363-0.94-3.635-0.94H182.884c-1.272,0-2.522,0.323-3.635,0.94c-30.07,16.661-48.75,48.352-48.75,82.706
		C130.5,168.788,133.858,172.146,138,172.146z"/>
	<path d="M339,217.146H131c-4.142,0-7.5,3.358-7.5,7.5s3.358,7.5,7.5,7.5h208c4.143,0,7.5-3.358,7.5-7.5
		S343.143,217.146,339,217.146z"/>
	<path d="M131,202.146h208c4.143,0,7.5-3.358,7.5-7.5s-3.357-7.5-7.5-7.5H131c-4.142,0-7.5,3.358-7.5,7.5
		S126.858,202.146,131,202.146z"/>
	<path d="M173,66h124c4.143,0,7.5-3.358,7.5-7.5S301.143,51,297,51h-2.5V7.5c0-4.142-3.357-7.5-7.5-7.5H183
		c-4.142,0-7.5,3.358-7.5,7.5V51H173c-4.142,0-7.5,3.358-7.5,7.5S168.858,66,173,66z M190.5,15h89v36h-89V15z"/>
	<path d="M263.349,382.466c0,4.142,3.357,7.5,7.5,7.5h19.165c2.68,0,5.155-1.43,6.495-3.75s1.34-5.18,0-7.5l-55.014-95.286
		c-1.34-2.32-3.815-3.75-6.495-3.75s-5.155,1.43-6.495,3.75l-55.014,95.286c-1.34,2.32-1.34,5.18,0,7.5s3.815,3.75,6.495,3.75
		h45.823l-4.611,4.81c-2.867,2.99-2.766,7.738,0.224,10.604c1.454,1.394,3.322,2.086,5.189,2.086c1.973,0,3.942-0.773,5.415-2.31
		l16.775-17.5c2.781-2.901,2.781-7.479,0-10.38l-16.775-17.5c-2.866-2.991-7.614-3.091-10.604-0.224
		c-2.99,2.866-3.091,7.614-0.224,10.604l4.611,4.81h-32.833L235,302.18l42.023,72.786h-6.175
		C266.706,374.966,263.349,378.324,263.349,382.466z"/>
</g>
<g>
</g>
<g>
</g>
<g>
</g>
<g>
</g>
<g>
</g>
<g>
</g>
<g>
</g>
<g>
</g>
<g>
</g>
<g>
</g>
<g>
</g>
<g>
</g>
<g>
</g>
<g>
</g>
<g>
</g>
</svg>
