<?xml version="1.0" encoding="iso-8859-1"?>
<!-- Generator: Adobe Illustrator 17.1.0, SVG Export Plug-In . SVG Version: 6.00 Build 0)  -->
<!DOCTYPE svg PUBLIC "-//W3C//DTD SVG 1.1//EN" "http://www.w3.org/Graphics/SVG/1.1/DTD/svg11.dtd">
<svg version="1.1" id="Capa_1" xmlns="http://www.w3.org/2000/svg" xmlns:xlink="http://www.w3.org/1999/xlink" x="0px" y="0px"
	 viewBox="0 0 470.038 470.038" style="enable-background:new 0 0 470.038 470.038;" xml:space="preserve">
<path d="M453.299,293.222l-48.431-84.256l6.547-3.78c2.687-1.551,4.141-4.596,3.659-7.66c-0.482-3.064-2.801-5.516-5.833-6.167
	l-16.536-3.553l-69.929-121.66C302.174,30.305,270.188,9.75,235.019,9.75c-35.168,0-67.155,20.555-87.756,56.395l-21.957,38.199
	c-2.064,3.591-0.826,8.176,2.765,10.24c3.589,2.063,8.175,0.827,10.24-2.765l21.957-38.199c17.853-31.058,45.099-48.87,74.751-48.87
	s56.899,17.813,74.751,48.87l63.195,109.943l-45.521-9.782c-3.761-0.809-7.531,1.365-8.714,5.031l-14.33,44.44l-62.88-109.392
	c-1.338-2.328-3.818-3.762-6.502-3.762s-5.165,1.435-6.502,3.762l-51.51,89.614c-1.435,2.497-1.274,5.474,0.165,7.751
	l-57.373,12.329l-18.043-55.955c0.704,0.017,1.411-0.07,2.103-0.256c1.923-0.517,3.562-1.778,4.554-3.505l14.95-26.01
	c2.064-3.591,0.826-8.176-2.765-10.24c-3.589-2.064-8.175-0.827-10.24,2.765L99.15,149.849l-6.336-3.658
	c-2.687-1.551-6.05-1.289-8.463,0.662c-2.413,1.949-3.376,5.183-2.425,8.135l5.129,15.905l-70.315,122.33
	c-20.568,35.782-22.26,73.768-4.642,104.216c17.619,30.448,51.395,47.911,92.666,47.911h96.09l0.531,7.939
	c0.201,3.004,2.179,5.596,5.023,6.584c0.805,0.28,1.636,0.415,2.458,0.415c2.083,0,4.116-0.869,5.564-2.469l11.277-12.469h79.566
	c4.142,0,7.5-3.358,7.5-7.5s-3.358-7.5-7.5-7.5h-65.999l31.277-34.581c2.583-2.856,2.583-7.205,0-10.062l-31.276-34.58h125.666
	c2.677,0,5.151-1.427,6.492-3.744c1.341-2.317,1.345-5.173,0.011-7.494l-51.905-90.301c-0.993-1.727-2.631-2.988-4.554-3.505
	c-0.691-0.186-1.39-0.269-2.103-0.256l18.043-55.955l57.374,12.328c-1.439,2.277-1.6,5.254-0.165,7.751l52.161,90.746
	c17.829,31.016,19.528,63.539,4.663,89.229c-14.865,25.69-43.909,40.424-79.683,40.424h-30c-4.142,0-7.5,3.358-7.5,7.5
	s3.358,7.5,7.5,7.5h30c41.271,0,75.047-17.463,92.666-47.911C475.559,366.989,473.867,329.004,453.299,293.222z M214.819,435.027
	c-1.12-2.757-3.823-4.678-6.951-4.678H104.764c-35.774,0-64.817-14.734-79.683-40.424c-14.865-25.69-13.166-58.212,4.663-89.229
	l63.528-110.522l14.33,44.439c1.183,3.666,4.947,5.841,8.714,5.031l45.521-9.782L98.595,339.888
	c-1.334,2.321-1.33,5.177,0.011,7.494c1.341,2.317,3.815,3.744,6.492,3.744h102.771c3.128,0,5.831-1.921,6.951-4.678l40.057,44.289
	L214.819,435.027z M351.979,336.126h-126.27l-11.277-12.469c-2.02-2.233-5.18-3.043-8.022-2.054
	c-2.844,0.988-4.822,3.58-5.023,6.584l-0.531,7.939h-82.795l63.518-110.505l16.535-3.553c3.033-0.652,5.352-3.103,5.833-6.167
	c0.481-3.064-0.973-6.109-3.659-7.66l-6.546-3.78l41.277-71.812l63.164,109.887l-5.128,15.903c-0.952,2.952,0.012,6.186,2.425,8.135
	c2.413,1.95,5.777,2.212,8.463,0.661l6.335-3.658L351.979,336.126z"/>
<g>
</g>
<g>
</g>
<g>
</g>
<g>
</g>
<g>
</g>
<g>
</g>
<g>
</g>
<g>
</g>
<g>
</g>
<g>
</g>
<g>
</g>
<g>
</g>
<g>
</g>
<g>
</g>
<g>
</g>
</svg>
