<svg width="354px" height="294px" viewBox="618 167 354 294" version="1.1" xmlns="http://www.w3.org/2000/svg" xmlns:xlink="http://www.w3.org/1999/xlink">
    <g id="social-network" stroke="none" stroke-width="1" fill="none" fill-rule="evenodd" transform="translate(618.000000, 167.000000)">
        <path d="M205.434,184.784 C205.434,142.286 159.499,107.836 102.837,107.836 C46.176,107.836 0.241,142.286 0.241,184.784 C0.241,216.997 26.644,244.571 64.094,256.038 C62.698,277.213 49.207,293.988 49.207,293.988 C78.175,287.994 94.94,275.181 104.616,261.698 C160.455,260.983 205.434,226.834 205.434,184.784" id="Fill-5" fill="#2F424F"></path>
        <path d="M102.955,107.838 L102.955,263.901 C103.527,263.168 104.085,262.436 104.615,261.698 C160.454,260.983 205.432,226.834 205.432,184.784 C205.434,142.316 159.564,107.886 102.955,107.838" id="Fill-6" fill="#27333F"></path>
        <path d="M123.198,87.323 C123.198,39.597 174.785,0.907 238.419,0.907 C302.054,0.907 353.64,39.597 353.64,87.323 C353.64,123.499 323.989,154.466 281.929,167.343 C283.498,191.125 298.647,209.964 298.647,209.964 C266.115,203.232 247.287,188.841 236.419,173.701 C173.712,172.898 123.198,134.546 123.198,87.323" id="Fill-7" fill="#56ADD5"></path>
        <path d="M353.64,87.323 C353.64,39.597 302.054,0.907 238.419,0.907 C237.505,0.907 236.604,0.943 235.695,0.959 L235.695,173.677 C235.938,173.68 236.178,173.696 236.421,173.699 C247.287,188.841 266.115,203.23 298.649,209.962 C298.649,209.962 283.499,191.123 281.93,167.342 C323.989,154.466 353.64,123.499 353.64,87.323" id="Fill-8" fill="#3493C4"></path>
        <path d="M289.169,55.874 C286.985,56.843 284.716,57.606 282.391,58.16 C284.954,55.724 286.883,52.676 287.969,49.275 C288.28,48.304 287.225,47.465 286.349,47.984 C283.111,49.904 279.626,51.343 275.985,52.266 C275.773,52.319 275.555,52.347 275.336,52.347 C274.673,52.347 274.028,52.1 273.521,51.654 C269.648,48.24 264.667,46.361 259.496,46.361 C257.258,46.361 254.998,46.71 252.781,47.397 C245.908,49.53 240.605,55.198 238.941,62.194 C238.317,64.818 238.148,67.443 238.438,69.998 C238.471,70.291 238.333,70.496 238.247,70.593 C238.097,70.762 237.883,70.858 237.662,70.858 C237.638,70.858 237.612,70.856 237.586,70.855 C222.542,69.457 208.975,62.209 199.385,50.445 C198.895,49.845 197.957,49.92 197.568,50.587 C195.69,53.809 194.697,57.493 194.697,61.242 C194.697,66.988 197.006,72.404 201.015,76.352 C199.329,75.952 197.697,75.323 196.18,74.48 C195.447,74.073 194.544,74.596 194.534,75.435 C194.428,83.972 199.426,91.567 206.913,94.988 C206.763,94.991 206.611,94.993 206.46,94.993 C205.273,94.993 204.072,94.879 202.888,94.651 C202.062,94.495 201.367,95.277 201.624,96.079 C204.055,103.666 210.587,109.258 218.404,110.529 C211.916,114.883 204.362,117.181 196.497,117.181 L194.046,117.179 C193.291,117.179 192.651,117.672 192.46,118.403 C192.27,119.124 192.62,119.884 193.263,120.258 C202.124,125.415 212.231,128.14 222.497,128.14 C231.482,128.14 239.888,126.358 247.48,122.841 C254.439,119.617 260.59,115.009 265.758,109.144 C270.575,103.681 274.34,97.373 276.952,90.399 C279.441,83.749 280.756,76.656 280.756,69.882 L280.756,69.56 C280.756,68.472 281.248,67.45 282.106,66.752 C285.363,64.107 288.198,60.996 290.534,57.501 C291.157,56.581 290.184,55.424 289.169,55.874" id="Fill-9" fill="#FFFFFF"></path>
        <path d="M289.169,55.874 C286.985,56.843 284.716,57.606 282.391,58.16 C284.954,55.724 286.882,52.676 287.969,49.275 C288.28,48.304 287.225,47.465 286.349,47.984 C283.111,49.904 279.626,51.343 275.985,52.266 C275.774,52.319 275.555,52.347 275.336,52.347 C274.673,52.347 274.03,52.1 273.521,51.654 C269.649,48.24 264.667,46.361 259.497,46.361 C257.26,46.361 255,46.71 252.781,47.397 C245.908,49.53 240.605,55.198 238.941,62.194 C238.317,64.818 238.148,67.443 238.438,70 C238.471,70.293 238.333,70.498 238.247,70.594 C238.097,70.763 237.883,70.86 237.662,70.86 C237.638,70.86 237.612,70.858 237.586,70.856 C236.952,70.798 236.323,70.713 235.694,70.634 L235.694,126.771 C239.802,125.887 243.742,124.578 247.483,122.846 C254.443,119.622 260.594,115.014 265.762,109.148 C270.579,103.685 274.344,97.377 276.955,90.402 C279.445,83.753 280.76,76.659 280.76,69.886 L280.76,69.563 C280.76,68.476 281.251,67.452 282.11,66.757 C285.366,64.113 288.202,61.001 290.538,57.507 C291.157,56.581 290.184,55.424 289.169,55.874" id="Fill-10" fill="#E9F4F8"></path>
        <path d="M91.403,159.129 L91.403,171.264 L82.512,171.264 L82.512,186.103 L91.403,186.103 L91.403,230.199 L109.666,230.199 L109.666,186.105 L121.921,186.105 C121.921,186.105 123.069,178.99 123.626,171.21 L109.735,171.21 L109.735,161.065 C109.735,159.548 111.726,157.509 113.694,157.509 L123.645,157.509 L123.645,142.061 L110.116,142.061 C90.951,142.059 91.403,156.912 91.403,159.129" id="Fill-11" fill="#FFFFFF"></path>
        <path d="M113.694,157.507 L123.645,157.507 L123.645,142.059 L110.116,142.059 C107.332,142.059 104.973,142.38 102.955,142.921 L102.955,230.197 L109.666,230.197 L109.666,186.103 L121.921,186.103 C121.921,186.103 123.069,178.988 123.626,171.208 L109.736,171.208 L109.736,161.063 C109.735,159.548 111.726,157.507 113.694,157.507" id="Fill-12" fill="#E9F4F8"></path>
    </g>
</svg>