<?xml version="1.0" encoding="iso-8859-1"?>
<!-- Generator: Adobe Illustrator 19.0.0, SVG Export Plug-In . SVG Version: 6.00 Build 0)  -->
<svg version="1.1" id="Layer_1" xmlns="http://www.w3.org/2000/svg" xmlns:xlink="http://www.w3.org/1999/xlink" x="0px" y="0px"
	 viewBox="0 0 512 512" style="enable-background:new 0 0 512 512;" xml:space="preserve">
<rect x="233.412" style="fill:#FFAF33;" width="45.176" height="90.353"/>
<g>
	
		<rect x="84.347" y="61.757" transform="matrix(-0.7071 0.7071 -0.7071 -0.7071 258.1618 106.9313)" style="fill:#FFDB2D;" width="45.176" height="90.352"/>
	<rect y="233.412" style="fill:#FFDB2D;" width="90.353" height="45.176"/>
	
		<rect x="84.335" y="359.89" transform="matrix(0.7071 0.7071 -0.7071 0.7071 317.7418 43.0348)" style="fill:#FFDB2D;" width="45.176" height="90.352"/>
	<rect x="233.412" y="421.647" style="fill:#FFDB2D;" width="45.176" height="90.353"/>
</g>
<g>
	
		<rect x="382.48" y="359.906" transform="matrix(0.7071 -0.7071 0.7071 0.7071 -167.7949 405.0719)" style="fill:#FFAF33;" width="45.176" height="90.352"/>
	<rect x="421.647" y="233.412" style="fill:#FFAF33;" width="90.353" height="45.176"/>
	
		<rect x="382.477" y="61.758" transform="matrix(-0.7071 -0.7071 0.7071 -0.7071 615.8759 468.9727)" style="fill:#FFAF33;" width="45.176" height="90.352"/>
</g>
<circle style="fill:#FFEA8A;" cx="256" cy="256" r="180.706"/>
<path style="fill:#FFDB2D;" d="M256,75.294v361.412c99.801,0,180.706-80.905,180.706-180.706S355.801,75.294,256,75.294z"/>
<g>
	<path style="fill:#FFAF33;" d="M256,368.941c-30.167,0-58.531-11.747-79.861-33.08c-21.332-21.331-33.08-49.694-33.08-79.861
		s11.747-58.531,33.08-79.861l31.944,31.946c-12.798,12.798-19.848,29.815-19.848,47.916s7.049,35.117,19.848,47.916
		c12.8,12.8,29.816,19.849,47.917,19.849s35.117-7.049,47.916-19.848c12.8-12.8,19.849-29.816,19.849-47.917
		s-7.049-35.117-19.848-47.916l31.944-31.946c21.332,21.331,33.08,49.694,33.08,79.861s-11.747,58.531-33.08,79.861
		C314.531,357.194,286.167,368.941,256,368.941z"/>
	<rect x="233.412" y="150.588" style="fill:#FFAF33;" width="45.176" height="120.471"/>
</g>
<path style="fill:#FF9408;" d="M335.861,176.139l-31.944,31.946c12.798,12.798,19.848,29.815,19.848,47.916
	s-7.049,35.117-19.849,47.917c-12.798,12.798-29.815,19.848-47.916,19.848v45.176c30.167,0,58.531-11.747,79.861-33.08
	c21.332-21.331,33.08-49.694,33.08-79.861S357.194,197.469,335.861,176.139z"/>
<g>
</g>
<g>
</g>
<g>
</g>
<g>
</g>
<g>
</g>
<g>
</g>
<g>
</g>
<g>
</g>
<g>
</g>
<g>
</g>
<g>
</g>
<g>
</g>
<g>
</g>
<g>
</g>
<g>
</g>
</svg>
