<svg width="125px" height="123px" viewBox="1088 444 125 123" version="1.1" xmlns="http://www.w3.org/2000/svg" xmlns:xlink="http://www.w3.org/1999/xlink">
    <!-- Generator: Sketch 42 (36781) - http://www.bohemiancoding.com/sketch -->
    <desc>Created with Sketch.</desc>
    <defs></defs>
    <g id="Group" stroke="none" stroke-width="1" fill="none" fill-rule="evenodd" transform="translate(1088.000000, 444.000000)">
        <path d="M94.2,9.5 C84.8,3.9 73.9,0.9 62.7,0.9 C48.8,0.9 35.2,5.5 24.4,13.8 C3,30.3 -5.4,59.5 3.9,84.7 L6.5,91.7 L5.2,84.3 C4,77.8 -0.4,44.8 24,22.4 L24,22.4 L25.8,20.8 C34.2,13.6 44.3,9.1 55.8,7.5 C58.2,7.2 60.7,7 63.3,7 C70,7 76.6,8.2 82,10.4 C102.3,17.1 117.5,36.4 119.9,58.5 C120.9,79 111.6,93.6 106.9,99.6 C107.6,93.8 107,88 106.9,87.8 L105.9,80 L105.6,87.9 C105,101 100.6,107.9 98.9,110 C97,112.2 95.6,113.4 94,114.7 C95.7,113.7 97.1,113.2 99.2,111.7 L99.2,111.7 C104.8,107.2 108.8,103.3 112.2,99 C116.5,93.5 119.9,86.7 122,79.5 C129.9,52.8 118.4,23.9 94.2,9.5 Z" id="Shape" fill="#FFFFFF" fill-rule="nonzero"></path>
        <path d="M62.3,119.8 C56.3,119.2 50.4,117.7 44.9,115.3 C42.5,114.2 40.2,112.6 38.1,111 C36.2,109.6 34.3,108 32.6,106.3 C27,100.8 22.9,94 20.7,86.4 C19.7,82.7 19.1,79 18.9,75.1 C18.8,72.4 18.8,69.5 19.4,66.8 C22.2,71.1 28.3,74 32.6,70 C35.9,66.9 36.2,62 36.1,57.8 C35.9,52.3 35.7,46.7 38,41.5 C40,36.9 43.5,33.1 47.5,30 C48.1,29.5 48.8,29 49.5,28.6 C50.7,39.1 56.7,48.8 65,55.1 C67.3,56.9 70,58.2 72.4,59.9 C74.7,61.6 76.9,63.5 78.9,65.7 C82.7,70 85.4,75.5 86.6,81.1 C88,87.2 86.5,93.9 83.2,99.2 C79.9,104.6 74.8,108.6 68.7,110.5 C72.1,110.9 75.7,109.2 78.4,107.3 C82.9,104.1 86.8,99.4 88.8,94.3 C92.9,84.3 89.7,72.2 83.4,63.8 C80.2,59.5 76,56 71.6,52.9 C69.5,51.4 67.4,50 65.6,48.2 C63.8,46.3 62.2,44.1 60.8,41.8 C57.8,36.9 55.4,31.8 55.3,25.9 C55.2,23 55.6,19.9 56.5,17.2 C48.7,21.5 40.1,25.8 35,33.5 C31.9,38.2 30,43.7 29.7,49.3 C29.5,52.4 29.8,55.3 30,58.4 C30.1,60.4 30.3,62.8 29.5,64.7 C28.7,66.5 26.6,66.5 25.1,65.6 C23.6,64.7 22.4,63.2 21.4,61.8 C19.9,59.7 18.6,57.4 17.4,55.1 C16.8,56.4 16.5,57.8 16.2,59.1 C15.8,60.7 15.4,62.3 15.1,64 C14.5,67 14.2,70 14.1,73.1 C14,78.9 14.9,84.7 16.9,90.2 C20.3,99.5 26.2,108 34.5,113.8 C48.9,123.8 67.9,124.6 84.3,119.6 C77.1,120.5 69.6,120.5 62.3,119.8 Z" id="Shape" fill="#FFFFFF" fill-rule="nonzero"></path>
    </g>
</svg>