
<svg width="125px" height="123px" viewBox="1088 0 125 123" version="1.1" xmlns="http://www.w3.org/2000/svg" xmlns:xlink="http://www.w3.org/1999/xlink">
    <!-- Generator: Sketch 42 (36781) - http://www.bohemiancoding.com/sketch -->
    <desc>Created with Sketch.</desc>
    <defs>
        <linearGradient x1="0.105939901%" y1="50.1179515%" x2="100.19807%" y2="50.1179515%" id="linearGradient-1">
            <stop stop-color="#2B3990" offset="0%"></stop>
            <stop stop-color="#1C75BC" offset="48.82%"></stop>
            <stop stop-color="#27AAE1" offset="82.72%"></stop>
            <stop stop-color="#27AAE1" offset="95.96%"></stop>
        </linearGradient>
    </defs>
    <g id="Group" stroke="none" stroke-width="1" fill="none" fill-rule="evenodd" transform="translate(1088.000000, 0.000000)">
        <path d="M94.2,9.3 C84.8,3.7 73.9,0.7 62.7,0.7 C48.8,0.7 35.2,5.3 24.4,13.6 C3,30.1 -5.4,59.3 3.9,84.5 L6.5,91.5 L5.2,84.1 C4,77.6 -0.4,44.6 24,22.2 L24,22.2 L25.8,20.6 C34.2,13.4 44.3,8.9 55.8,7.3 C58.2,7 60.7,6.8 63.3,6.8 C70,6.8 76.6,8 82,10.2 C102.3,16.9 117.5,36.2 119.9,58.3 C120.9,78.8 111.6,93.4 106.9,99.4 C107.6,93.6 107,87.8 106.9,87.6 L105.9,79.8 L105.6,87.7 C105,100.8 100.6,107.7 98.9,109.8 C97,112 95.6,113.2 94,114.5 C95.7,113.5 97.1,113 99.2,111.5 L99.2,111.5 C104.8,107 108.8,103.1 112.2,98.8 C116.5,93.3 119.9,86.5 122,79.3 C129.9,52.6 118.4,23.7 94.2,9.3 Z" id="Shape" fill="#003A68" fill-rule="nonzero"></path>
        <path d="M62.3,119.6 C56.3,119 50.4,117.5 44.9,115.1 C42.5,114 40.2,112.4 38.1,110.8 C36.2,109.4 34.3,107.8 32.6,106.1 C27,100.6 22.9,93.8 20.7,86.2 C19.7,82.5 19.1,78.8 18.9,74.9 C18.8,72.2 18.8,69.3 19.4,66.6 C22.2,70.9 28.3,73.8 32.6,69.8 C35.9,66.7 36.2,61.8 36.1,57.6 C35.9,52.1 35.7,46.5 38,41.3 C40,36.7 43.5,32.9 47.5,29.8 C48.1,29.3 48.8,28.8 49.5,28.4 C50.7,38.9 56.7,48.6 65,54.9 C67.3,56.7 70,58 72.4,59.7 C74.7,61.4 76.9,63.3 78.9,65.5 C82.7,69.8 85.4,75.3 86.6,80.9 C88,87 86.5,93.7 83.2,99 C79.9,104.4 74.8,108.4 68.7,110.3 C72.1,110.7 75.7,109 78.4,107.1 C82.9,103.9 86.8,99.2 88.8,94.1 C92.9,84.1 89.7,72 83.4,63.6 C80.2,59.3 76,55.8 71.6,52.7 C69.5,51.2 67.4,49.8 65.6,48 C63.8,46.1 62.2,43.9 60.8,41.6 C57.8,36.7 55.4,31.6 55.3,25.7 C55.2,22.8 55.6,19.7 56.5,17 C48.7,21.3 40.1,25.6 35,33.3 C31.9,38 30,43.5 29.7,49.1 C29.5,52.2 29.8,55.1 30,58.2 C30.1,60.2 30.3,62.6 29.5,64.5 C28.7,66.3 26.6,66.3 25.1,65.4 C23.6,64.5 22.4,63 21.4,61.6 C19.9,59.5 18.6,57.2 17.4,54.9 C16.8,56.2 16.5,57.6 16.2,58.9 C15.8,60.5 15.4,62.1 15.1,63.8 C14.5,66.8 14.2,69.8 14.1,72.9 C14,78.7 14.9,84.5 16.9,90 C20.3,99.3 26.2,107.8 34.5,113.6 C48.9,123.6 67.9,124.4 84.3,119.4 C77.1,120.3 69.6,120.3 62.3,119.6 Z" id="Shape" fill="url(#linearGradient-1)" fill-rule="nonzero"></path>
    </g>
</svg>