
<svg width="406px" height="123px" viewBox="0 444 406 123" version="1.1" xmlns="http://www.w3.org/2000/svg" xmlns:xlink="http://www.w3.org/1999/xlink">
    <!-- Generator: Sketch 42 (36781) - http://www.bohemiancoding.com/sketch -->
    <desc>Created with Sketch.</desc>
    <defs></defs>
    <g id="Group" stroke="none" stroke-width="1" fill="none" fill-rule="evenodd" transform="translate(0.000000, 444.000000)">
        <g transform="translate(281.000000, 66.000000)" id="Shape" fill-rule="nonzero" fill="#FFFFFF">
            <polygon points="0.9 0.8 10.6 0.8 10.6 2.2 2.5 2.2 2.5 6.8 9.8 6.8 9.8 8.2 2.5 8.2 2.5 12.9 10.7 12.9 10.7 14.3 1 14.3 1 0.8"></polygon>
            <polygon points="13.2 0.8 14.6 0.8 23 11.5 23 0.8 24.5 0.8 24.5 14.2 23.3 14.2 14.7 3.2 14.7 14.2 13.2 14.2 13.2 0.8"></polygon>
            <polygon points="27.8 0.8 37.5 0.8 37.5 2.2 29.4 2.2 29.4 6.8 36.7 6.8 36.7 8.2 29.4 8.2 29.4 12.9 37.6 12.9 37.6 14.3 27.9 14.3 27.9 0.8"></polygon>
            <path d="M40.1,0.8 L45.8,0.8 C47.4,0.8 48.8,1.3 49.6,2.1 C50.2,2.7 50.6,3.7 50.6,4.7 L50.6,4.7 C50.6,6.9 49.1,8.2 47,8.6 L51.1,14.1 L49.3,14.1 L45.4,8.9 L45.4,8.9 L41.6,8.9 L41.6,14.1 L40.1,14.1 L40.1,0.8 Z M45.7,7.7 C47.7,7.7 49.1,6.7 49.1,5 L49.1,5 C49.1,3.4 47.8,2.4 45.7,2.4 L41.6,2.4 L41.6,7.8 L45.7,7.8 L45.7,7.7 Z"></path>
            <path d="M52.9,7.6 L52.9,7.6 C52.9,3.9 55.6,0.7 59.6,0.7 C61.9,0.7 63.2,1.3 64.6,2.5 L63.6,3.6 C62.6,2.7 61.4,2.1 59.5,2.1 C56.5,2.1 54.4,4.6 54.4,7.6 L54.4,7.6 C54.4,10.8 56.4,13.2 59.7,13.2 C61.2,13.2 62.6,12.6 63.6,11.9 L63.6,8.6 L59.5,8.6 L59.5,7.2 L65,7.2 L65,12.5 C63.8,13.6 61.9,14.5 59.6,14.5 C55.4,14.4 52.9,11.4 52.9,7.6 Z"></path>
            <polygon points="71.5 8.9 65.9 0.8 67.7 0.8 72.2 7.5 76.7 0.8 78.5 0.8 72.9 8.9 72.9 14.2 71.4 14.2 71.4 8.9"></polygon>
            <path d="M0.9,22.5 L6.6,22.5 C8.2,22.5 9.6,23 10.4,23.8 C11,24.4 11.4,25.4 11.4,26.4 L11.4,26.4 C11.4,28.6 9.9,29.9 7.8,30.3 L11.9,35.8 L10.1,35.8 L6.2,30.6 L6.2,30.6 L2.4,30.6 L2.4,35.8 L0.9,35.8 L0.9,22.5 Z M6.5,29.3 C8.5,29.3 9.9,28.3 9.9,26.6 L9.9,26.6 C9.9,25 8.6,24 6.5,24 L2.4,24 L2.4,29.4 L6.5,29.4 L6.5,29.3 Z"></path>
            <polygon points="14.2 22.5 23.9 22.5 23.9 23.9 15.8 23.9 15.8 28.5 23.1 28.5 23.1 29.9 15.8 29.9 15.8 34.6 24 34.6 24 36 14.3 36 14.3 22.5"></polygon>
            <polygon points="25.4 22.5 27.1 22.5 31.9 34 36.7 22.5 38.3 22.5 32.6 36 31.3 36"></polygon>
            <path d="M39,29.3 L39,29.3 C39,25.6 41.8,22.4 45.8,22.4 C49.9,22.4 52.6,25.6 52.6,29.3 L52.6,29.3 C52.6,33 49.8,36.2 45.8,36.2 C41.7,36.1 39,32.9 39,29.3 Z M51.1,29.3 L51.1,29.3 C51.1,26.2 48.9,23.7 45.8,23.7 C42.7,23.7 40.6,26.1 40.6,29.2 L40.6,29.2 C40.6,32.2 42.8,34.7 45.9,34.7 C48.9,34.7 51.1,32.3 51.1,29.3 Z"></path>
            <polygon points="55.3 22.5 56.8 22.5 56.8 34.5 64.3 34.5 64.3 35.9 55.3 35.9"></polygon>
            <path d="M66.1,30.3 L66.1,22.5 L67.6,22.5 L67.6,30.2 C67.6,33.1 69.1,34.7 71.7,34.7 C74.2,34.7 75.7,33.2 75.7,30.3 L75.7,22.5 L77.2,22.5 L77.2,30.2 C77.2,34.1 75,36.1 71.6,36.1 C68.3,36.1 66.1,34.1 66.1,30.3 Z"></path>
            <polygon points="83.8 23.9 79.3 23.9 79.3 22.5 89.8 22.5 89.8 23.9 85.3 23.9 85.3 35.9 83.8 35.9"></polygon>
            <polygon points="92.3 22.5 93.8 22.5 93.8 35.9 92.3 35.9"></polygon>
            <path d="M96.7,29.3 L96.7,29.3 C96.7,25.6 99.5,22.4 103.5,22.4 C107.6,22.4 110.3,25.6 110.3,29.3 L110.3,29.3 C110.3,33 107.5,36.2 103.5,36.2 C99.5,36.2 96.7,32.9 96.7,29.3 Z M108.7,29.3 L108.7,29.3 C108.7,26.2 106.5,23.7 103.4,23.7 C100.3,23.7 98.2,26.1 98.2,29.2 L98.2,29.2 C98.2,32.2 100.4,34.7 103.5,34.7 C106.5,34.7 108.7,32.3 108.7,29.3 Z"></path>
            <polygon points="113 22.5 114.4 22.5 122.8 33.2 122.8 22.5 124.3 22.5 124.3 35.9 123.1 35.9 114.5 24.9 114.5 35.9 113 35.9"></polygon>
        </g>
        <path d="M94.7,9.5 C85.3,3.9 74.4,0.9 63.2,0.9 C49.3,0.9 35.7,5.5 24.9,13.8 C3.5,30.3 -4.9,59.5 4.4,84.7 L7,91.7 L5.7,84.3 C4.5,77.8 0.1,44.8 24.5,22.4 L24.5,22.4 L26.3,20.8 C34.7,13.6 44.8,9.1 56.3,7.5 C58.7,7.2 61.2,7 63.8,7 C70.5,7 77.1,8.2 82.5,10.4 C102.8,17.1 118,36.4 120.4,58.5 C121.4,79 112.1,93.6 107.4,99.6 C108.1,93.8 107.5,88 107.4,87.8 L106.4,80 L106.1,87.9 C105.5,101 101.1,107.9 99.4,110 C97.5,112.2 96.1,113.4 94.5,114.7 C96.2,113.7 97.6,113.2 99.7,111.7 L99.7,111.7 C105.3,107.2 109.3,103.3 112.7,99 C117,93.5 120.4,86.7 122.5,79.5 C130.4,52.8 118.9,23.9 94.7,9.5 Z" id="Shape" fill="#FFFFFF" fill-rule="nonzero"></path>
        <path d="M62.8,119.8 C56.8,119.2 50.9,117.7 45.4,115.3 C43,114.2 40.7,112.6 38.6,111 C36.7,109.6 34.8,108 33.1,106.3 C27.5,100.8 23.4,94 21.2,86.4 C20.2,82.7 19.6,79 19.4,75.1 C19.3,72.4 19.3,69.5 19.9,66.8 C22.7,71.1 28.8,74 33.1,70 C36.4,66.9 36.7,62 36.6,57.8 C36.4,52.3 36.2,46.7 38.5,41.5 C40.5,36.9 44,33.1 48,30 C48.6,29.5 49.3,29 50,28.6 C51.2,39.1 57.2,48.8 65.5,55.1 C67.8,56.9 70.5,58.2 72.9,59.9 C75.2,61.6 77.4,63.5 79.4,65.7 C83.2,70 85.9,75.5 87.1,81.1 C88.5,87.2 87,93.9 83.7,99.2 C80.4,104.6 75.3,108.6 69.2,110.5 C72.6,110.9 76.2,109.2 78.9,107.3 C83.4,104.1 87.3,99.4 89.3,94.3 C93.4,84.3 90.2,72.2 83.9,63.8 C80.7,59.5 76.5,56 72.1,52.9 C70,51.4 67.9,50 66.1,48.2 C64.3,46.3 62.7,44.1 61.3,41.8 C58.3,36.9 55.9,31.8 55.8,25.9 C55.7,23 56.1,19.9 57,17.2 C49.2,21.5 40.6,25.8 35.5,33.5 C32.4,38.2 30.5,43.7 30.2,49.3 C30,52.4 30.3,55.3 30.5,58.4 C30.6,60.4 30.8,62.8 30,64.7 C29.2,66.5 27.1,66.5 25.6,65.6 C24.1,64.7 22.9,63.2 21.9,61.8 C20.4,59.7 19.1,57.4 17.9,55.1 C17.3,56.4 17,57.8 16.7,59.1 C16.3,60.7 15.9,62.3 15.6,64 C15,67 14.7,70 14.6,73.1 C14.5,78.9 15.4,84.7 17.4,90.2 C20.8,99.5 26.7,108 35,113.8 C49.4,123.8 68.4,124.6 84.8,119.6 C77.6,120.5 70.1,120.5 62.8,119.8 Z" id="Shape" fill="#FFFFFF" fill-rule="nonzero"></path>
        <g transform="translate(146.000000, 19.000000)" id="Shape" fill-rule="nonzero" fill="#FFFFFF">
            <path d="M3.3,39.5 L3.3,1.2 L19.3,1.2 C26,1.2 30.9,7.4 30.9,13.4 C30.9,19.7 26.4,25.7 19.6,25.7 L8.2,25.7 L8.2,39.5 L3.3,39.5 Z M8.2,21.4 L19.4,21.4 C23.4,21.4 26,17.8 26,13.4 C26,8.9 22.8,5.5 19,5.5 L8.2,5.5 L8.2,21.4 L8.2,21.4 Z"></path>
            <path d="M36.8,39.5 L36.8,1.2 L53.2,1.2 C59.9,1.2 64.8,7.4 64.8,13.4 C64.8,18.7 61.6,23.5 56.8,24.8 L66.1,39.5 L60.6,39.5 L51.9,25.7 L41.8,25.7 L41.8,39.5 L36.8,39.5 Z M41.7,21.4 L53.3,21.4 C57.3,21.4 59.9,17.6 59.9,13.4 C59.9,9.1 56.7,5.5 52.9,5.5 L41.6,5.5 L41.6,21.4 L41.7,21.4 Z"></path>
            <path d="M70,20.3 C70,10.1 77.8,0.9 88.1,0.9 C98.8,0.9 106.1,10.8 106.1,20.4 C106.1,30.6 98.4,39.8 88,39.8 C77.3,39.7 70,30.1 70,20.3 Z M88.1,35.4 C96.2,35.4 101.2,27.7 101.2,20.3 C101.2,12.5 95.9,5.3 88.1,5.3 C80,5.3 74.9,12.9 74.9,20.3 C74.9,28.1 80.1,35.4 88.1,35.4 Z"></path>
            <path d="M108.6,33.8 C110,34.8 112.6,35.7 115.7,35.7 C123,35.7 123.9,30.4 123.9,20.6 L123.9,1.2 L128.8,1.2 L128.8,20.6 C128.8,32.3 127.3,40 115.7,40 C112.4,40 109.7,39.2 107.4,37.6 L108.6,33.8 Z"></path>
            <polygon points="163.4 35.2 163.4 39.5 137.4 39.5 137.4 1.2 162.9 1.2 162.9 5.5 142.2 5.5 142.2 17.9 160.2 17.9 160.2 21.9 142.2 21.9 142.2 35.1 163.4 35.1"></polygon>
            <path d="M186.1,0.9 C192.9,0.9 198,4.4 200.3,9.3 L196.5,11.8 C194.2,6.9 189.8,5.3 185.9,5.3 C177.4,5.3 172.8,13 172.8,20.2 C172.8,28.2 178.5,35.4 186.1,35.4 C190.1,35.4 194.8,33.4 197.1,28.7 L201.1,30.9 C198.7,36.6 191.8,39.8 185.9,39.8 C175.4,39.8 167.9,29.8 167.9,20.1 C167.9,10.8 174.6,0.9 186.1,0.9 Z"></path>
            <polygon points="234.5 5.5 221.3 5.5 221.3 39.5 216.4 39.5 216.4 5.5 203.2 5.5 203.2 1.2 234.5 1.2 234.5 5.5"></polygon>
            <path d="M30.4,77.9 C27,81.6 23.2,83.3 18.7,83.3 C8.6,83.3 0.8,73.6 0.8,63.8 C0.8,53.5 8.4,44.5 18.7,44.5 C26.1,44.5 30.8,47.9 33.3,52.9 L29.6,55.5 C27.3,51.1 23.3,48.9 18.6,48.9 C10.8,48.9 5.8,56.2 5.8,64 C5.8,72.2 11.6,79.1 19.1,79.1 C23.2,79.1 27,77.2 30.4,73.1 L30.4,67.8 L22.1,67.8 L22.1,64.1 L34.5,64.1 L34.5,83 L30.4,83 L30.4,77.9 L30.4,77.9 Z"></path>
            <path d="M38,83 L53.8,44.7 L57.8,44.7 L73.5,83 L68.3,83 L63.8,71.8 L47.7,71.8 L43.2,83 L38,83 Z M55.8,50.3 L48.7,68 L62.7,68 L55.8,50.3 Z"></path>
            <polygon points="78.6 83 78.6 44.7 83.5 44.7 83.5 83"></polygon>
            <path d="M88.6,83 L104.4,44.7 L108.4,44.7 L124.1,83 L118.9,83 L114.4,71.8 L98.3,71.8 L93.8,83 L88.6,83 Z M106.4,50.3 L99.3,68 L113.3,68 L106.4,50.3 Z"></path>
        </g>
    </g>
</svg>