
<svg width="380px" height="123px" viewBox="541 0 380 123" version="1.1" xmlns="http://www.w3.org/2000/svg" xmlns:xlink="http://www.w3.org/1999/xlink">
    <!-- Generator: Sketch 42 (36781) - http://www.bohemiancoding.com/sketch -->
    <desc>Created with Sketch.</desc>
    <defs>
        <linearGradient x1="0.146179729%" y1="50.1179515%" x2="100.23818%" y2="50.1179515%" id="linearGradient-1">
            <stop stop-color="#2B3990" offset="0%"></stop>
            <stop stop-color="#1C75BC" offset="48.82%"></stop>
            <stop stop-color="#27AAE1" offset="82.72%"></stop>
            <stop stop-color="#27AAE1" offset="95.96%"></stop>
        </linearGradient>
    </defs>
    <g id="Group" stroke="none" stroke-width="1" fill="none" fill-rule="evenodd" transform="translate(541.000000, 0.000000)">
        <path d="M94.1,9.5 C84.7,3.9 73.8,0.9 62.6,0.9 C48.7,0.9 35.1,5.5 24.3,13.8 C2.9,30.3 -5.5,59.5 3.8,84.7 L6.4,91.7 L5.1,84.3 C3.9,77.8 -0.5,44.8 23.9,22.4 L23.9,22.4 L25.7,20.8 C34.1,13.6 44.2,9.1 55.7,7.5 C58.1,7.2 60.6,7 63.2,7 C69.9,7 76.5,8.2 81.9,10.4 C102.2,17.1 117.4,36.4 119.8,58.5 C120.8,79 111.5,93.6 106.8,99.6 C107.5,93.8 106.9,88 106.8,87.8 L105.8,80 L105.5,87.9 C104.9,101 100.5,107.9 98.8,110 C96.9,112.2 95.5,113.4 93.9,114.7 C95.6,113.7 97,113.2 99.1,111.7 L99.1,111.7 C104.7,107.2 108.7,103.3 112.1,99 C116.4,93.5 119.8,86.7 121.9,79.5 C129.8,52.8 118.3,23.9 94.1,9.5 Z" id="Shape" fill="#003A68" fill-rule="nonzero"></path>
        <path d="M62.2,119.8 C56.2,119.2 50.3,117.7 44.8,115.3 C42.4,114.2 40.1,112.6 38,111 C36.1,109.6 34.2,108 32.5,106.3 C26.9,100.8 22.8,94 20.6,86.4 C19.6,82.7 19,79 18.8,75.1 C18.7,72.4 18.7,69.5 19.3,66.8 C22.1,71.1 28.2,74 32.5,70 C35.8,66.9 36.1,62 36,57.8 C35.8,52.3 35.6,46.7 37.9,41.5 C39.9,36.9 43.4,33.1 47.4,30 C48,29.5 48.7,29 49.4,28.6 C50.6,39.1 56.6,48.8 64.9,55.1 C67.2,56.9 69.9,58.2 72.3,59.9 C74.6,61.6 76.8,63.5 78.8,65.7 C82.6,70 85.3,75.5 86.5,81.1 C87.9,87.2 86.4,93.9 83.1,99.2 C79.8,104.6 74.7,108.6 68.6,110.5 C72,110.9 75.6,109.2 78.3,107.3 C82.8,104.1 86.7,99.4 88.7,94.3 C92.8,84.3 89.6,72.2 83.3,63.8 C80.1,59.5 75.9,56 71.5,52.9 C69.4,51.4 67.3,50 65.5,48.2 C63.7,46.3 62.1,44.1 60.7,41.8 C57.7,36.9 55.3,31.8 55.2,25.9 C55.1,23 55.5,19.9 56.4,17.2 C48.6,21.5 40,25.8 34.9,33.5 C31.8,38.2 29.9,43.7 29.6,49.3 C29.4,52.4 29.7,55.3 29.9,58.4 C30,60.4 30.2,62.8 29.4,64.7 C28.6,66.5 26.5,66.5 25,65.6 C23.5,64.7 22.3,63.2 21.3,61.8 C19.8,59.7 18.5,57.4 17.3,55.1 C16.7,56.4 16.4,57.8 16.1,59.1 C15.7,60.7 15.3,62.3 15,64 C14.4,67 14.1,70 14,73.1 C13.9,78.9 14.8,84.7 16.8,90.2 C20.2,99.5 26.1,108 34.4,113.8 C48.8,123.8 67.8,124.6 84.2,119.6 C77,120.5 69.5,120.5 62.2,119.8 Z" id="Shape" fill="url(#linearGradient-1)" fill-rule="nonzero"></path>
        <g transform="translate(146.000000, 19.000000)" id="Shape" fill-rule="nonzero" fill="#262262">
            <path d="M2.7,39.5 L2.7,1.2 L18.7,1.2 C25.4,1.2 30.3,7.4 30.3,13.4 C30.3,19.7 25.8,25.7 19,25.7 L7.6,25.7 L7.6,39.5 L2.7,39.5 Z M7.5,21.4 L18.7,21.4 C22.7,21.4 25.3,17.8 25.3,13.4 C25.3,8.9 22.1,5.5 18.3,5.5 L7.5,5.5 L7.5,21.4 L7.5,21.4 Z"></path>
            <path d="M36.2,39.5 L36.2,1.2 L52.6,1.2 C59.3,1.2 64.2,7.4 64.2,13.4 C64.2,18.7 61,23.5 56.2,24.8 L65.5,39.5 L60,39.5 L51.3,25.7 L41,25.7 L41,39.5 L36.2,39.5 Z M41,21.4 L52.6,21.4 C56.6,21.4 59.2,17.6 59.2,13.4 C59.2,9.1 56,5.5 52.2,5.5 L41,5.5 L41,21.4 Z"></path>
            <path d="M69.4,20.3 C69.4,10.1 77.2,0.9 87.5,0.9 C98.2,0.9 105.5,10.8 105.5,20.4 C105.5,30.6 97.8,39.8 87.4,39.8 C76.7,39.7 69.4,30.1 69.4,20.3 Z M87.4,35.4 C95.5,35.4 100.5,27.7 100.5,20.3 C100.5,12.5 95.2,5.3 87.4,5.3 C79.3,5.3 74.2,12.9 74.2,20.3 C74.3,28.1 79.5,35.4 87.4,35.4 Z"></path>
            <path d="M107.9,33.8 C109.3,34.8 111.9,35.7 115,35.7 C122.3,35.7 123.2,30.4 123.2,20.6 L123.2,1.2 L128.1,1.2 L128.1,20.6 C128.1,32.3 126.6,40 115,40 C111.7,40 109,39.2 106.7,37.6 L107.9,33.8 Z"></path>
            <polygon points="162.8 35.2 162.8 39.5 136.8 39.5 136.8 1.2 162.3 1.2 162.3 5.5 141.6 5.5 141.6 17.9 159.6 17.9 159.6 21.9 141.6 21.9 141.6 35.1 162.8 35.1"></polygon>
            <path d="M185.5,0.9 C192.3,0.9 197.4,4.4 199.7,9.3 L195.9,11.8 C193.6,6.9 189.2,5.3 185.3,5.3 C176.8,5.3 172.2,13 172.2,20.2 C172.2,28.2 177.9,35.4 185.5,35.4 C189.5,35.4 194.2,33.4 196.5,28.7 L200.5,30.9 C198.1,36.6 191.2,39.8 185.3,39.8 C174.8,39.8 167.3,29.8 167.3,20.1 C167.3,10.8 174,0.9 185.5,0.9 Z"></path>
            <polygon points="233.9 5.5 220.7 5.5 220.7 39.5 215.8 39.5 215.8 5.5 202.6 5.5 202.6 1.2 233.9 1.2 233.9 5.5"></polygon>
            <path d="M29.8,77.9 C26.4,81.6 22.6,83.3 18.1,83.3 C8,83.3 0.2,73.6 0.2,63.8 C0.2,53.5 7.8,44.5 18.1,44.5 C25.5,44.5 30.2,47.9 32.7,52.9 L29,55.5 C26.7,51.1 22.7,48.9 18,48.9 C10.2,48.9 5.2,56.2 5.2,64 C5.2,72.2 11,79.1 18.5,79.1 C22.6,79.1 26.4,77.2 29.8,73.1 L29.8,67.8 L21.5,67.8 L21.5,64.1 L33.9,64.1 L33.9,83 L29.8,83 L29.8,77.9 L29.8,77.9 Z"></path>
            <path d="M37.4,83 L53.2,44.7 L57.2,44.7 L72.9,83 L67.7,83 L63.2,71.8 L47.1,71.8 L42.6,83 L37.4,83 Z M55.2,50.3 L48.1,68 L62.1,68 L55.2,50.3 Z"></path>
            <polygon points="78 83 78 44.8 82.9 44.8 82.9 83"></polygon>
            <path d="M88,83 L103.8,44.7 L107.8,44.7 L123.5,83 L118.3,83 L113.8,71.8 L97.7,71.8 L93.2,83 L88,83 Z M105.8,50.3 L98.7,68 L112.7,68 L105.8,50.3 Z"></path>
        </g>
    </g>
</svg>